<svg width="46" height="48" viewBox="0 0 46 48" fill="none" xmlns="http://www.w3.org/2000/svg">
<path d="M18.3877 4.01886C20.1008 -0.0736928 25.8992 -0.0736961 27.6123 4.01886L31.2936 12.8137C31.7847 13.9869 32.7044 14.9289 33.8656 15.4479L42.7867 19.4352C46.7331 21.199 46.7331 26.801 42.7867 28.5648L33.8656 32.5521C32.7044 33.0711 31.7847 34.0131 31.2936 35.1863L27.6123 43.9811C25.8992 48.0737 20.1008 48.0737 18.3878 43.9811L14.7064 35.1863C14.2153 34.0131 13.2956 33.0711 12.1344 32.5521L3.21329 28.5648C-0.733073 26.801 -0.733079 21.199 3.21328 19.4352L12.1344 15.4479C13.2956 14.9289 14.2153 13.9869 14.7064 12.8137L18.3877 4.01886Z" fill="#0DFF00"/>
</svg>
